#!OML:ASF F:\VICON\USERDATA\INSTALL\rory3\rory3.ASF
:FULLY-SPECIFIED
:DEGREES
20
root 3.61297 17.6273 3.47291 18.5817 -17.6595 -1.32385
lowerback -9.72718 3.92531 3.89838
upperback -12.3887 4.96177 -0.292641
thorax -7.33806 2.11537 -2.29755
lowerneck -3.30845 16.7838 12.6045
upperneck 16.1748 21.0346 4.80697
head 6.31624 11.2677 1.15539
rclavicle -1.9133e-014 -3.97569e-015
rhumerus 6.22945 -22.657 10.9295
rradius 119.027
rwrist -58.332
rhand -5.31032 -46.0156
rfingers 7.12502
rthumb 20.4952 -74.9538
lclavicle -1.9133e-014 -3.97569e-015
lhumerus 27.2004 21.9329 -23.5377
lradius 32.731
lwrist 33.4688
lhand -25.7587 -24.3819
lfingers 7.12502
lthumb 0.778812 5.59641
rfemur 0.31884 2.51297 -3.89081
rtibia -3.18055e-015
rfoot -31.774 -23.5195
rtoes 52.1935
lfemur -21.0863 -2.67387 -25.1914
ltibia 17.0357
lfoot -11.9271 14.5768
ltoes 10.2414
21
root 3.62191 17.6311 3.46444 18.5116 -17.5399 -1.46994
lowerback -9.53018 3.89636 4.10233
upperback -12.3421 4.92843 -0.233828
thorax -7.38888 2.0843 -2.36097
lowerneck -3.53797 16.8234 12.4936
upperneck 16.4322 21.0368 4.9548
head 6.40937 11.2806 1.24646
rclavicle 9.39258e-015 -6.36111e-015
rhumerus 6.39599 -22.7243 10.7381
rradius 118.922
rwrist -58.2598
rhand -5.33864 -45.9425
rfingers 7.12502
rthumb 20.468 -74.8836
lclavicle 9.39258e-015 -6.36111e-015
lhumerus 27.417 22.5446 -22.9134
lradius 32.5833
lwrist 32.7298
lhand -26.0857 -24.5633
lfingers 7.12502
lthumb 0.462982 5.41596
rfemur 0.411185 2.49763 -3.68288
rtibia -1.59028e-014
rfoot -31.6603 -23.9007
rtoes 51.9588
lfemur -21.0767 -2.48094 -25.083
ltibia 17.1689
lfoot -11.9867 14.3463
ltoes 10.0176
22
root 3.62831 17.6345 3.4555 18.5135 -17.4513 -1.71701
lowerback -9.41736 3.88878 4.36301
upperback -12.2587 4.91744 -0.142693
thorax -7.34922 2.0645 -2.41303
lowerneck -3.64116 16.8306 12.5156
upperneck 16.4677 21.048 4.82444
head 6.45471 11.2783 1.22086
rclavicle -2.41523e-014 -1.78906e-015
rhumerus 6.45299 -22.7561 10.685
rradius 118.905
rwrist -58.1724
rhand -5.56929 -45.9036
rfingers 7.12502
rthumb 20.2464 -74.8684
lclavicle -2.41523e-014 -1.78906e-015
lhumerus 27.4102 22.8222 -22.7038
lradius 32.5568
lwrist 32.6949
lhand -26.8365 -24.8373
lfingers 7.12502
lthumb -0.262185 5.14233
rfemur 0.456363 2.52062 -3.38159
rtibia 1.27222e-014
rfoot -32.3026 -23.0745
rtoes 52.4279
lfemur -21.1003 -2.30058 -24.8592
ltibia 17.2708
lfoot -11.9376 14.1937
ltoes 9.87833
23
root 3.63058 17.6359 3.45107 18.566 -17.5029 -1.8571
lowerback -9.3858 3.9021 4.43163
upperback -12.2584 4.937 -0.0815698
thorax -7.36616 2.07109 -2.3878
lowerneck -3.55563 16.79 12.5691
upperneck 16.4104 21.0226 4.68709
head 6.44209 11.2577 1.16251
rclavicle -3.22528e-014 -2.56432e-014
rhumerus 6.23376 -22.5098 10.9732
rradius 119.109
rwrist -58.2552
rhand -5.92881 -45.787
rfingers 7.12502
rthumb 19.9008 -74.788
lclavicle -3.22528e-014 -2.56432e-014
lhumerus 27.3691 22.8699 -22.6875
lradius 32.5692
lwrist 32.7758
lhand -26.8163 -24.9904
lfingers 7.12502
lthumb -0.242687 4.98916
rfemur 0.386396 2.60196 -3.24629
rtibia -2.22639e-014
rfoot -32.0025 -23.3343
rtoes 52.4232
lfemur -21.1532 -2.238 -24.7316
ltibia 17.3041
lfoot -11.8974 14.2158
ltoes 9.96362
24
root 3.63166 17.6368 3.4483 18.62 -17.6659 -1.86459
lowerback -9.38244 3.93229 4.29451
upperback -12.3156 4.98587 -0.0370384
thorax -7.44262 2.10572 -2.26636
lowerneck -3.46993 16.7888 12.4786
upperneck 16.4167 21.0311 4.76377
head 6.41187 11.2635 1.18602
rclavicle 5.01931e-015 -5.56597e-015
rhumerus 7.04974 -23.007 10.0384
rradius 118.612
rwrist -57.9364
rhand -5.63454 -46.4602
rfingers 7.12502
rthumb 20.1836 -75.4316
lclavicle 5.01931e-015 -5.56597e-015
lhumerus 27.4368 23.0131 -22.4672
lradius 32.5057
lwrist 32.5044
lhand -26.6191 -25.255
lfingers 7.12502
lthumb -0.0521586 4.72472
rfemur 0.235949 2.72602 -3.2863
rtibia -6.36111e-015
rfoot -31.3696 -23.917
rtoes 52.4049
lfemur -21.1976 -2.26141 -24.7322
ltibia 17.2649
lfoot -11.9333 14.337
ltoes 10.2651
25
root 3.63529 17.6344 3.44604 18.5993 -17.8101 -1.64425
lowerback -9.5062 3.96362 4.03218
upperback -12.2643 5.02685 -0.096758
thorax -7.32569 2.14889 -2.17242
lowerneck -3.44395 16.784 12.3549
upperneck 16.277 21.0381 4.79088
head 6.34503 11.2581 1.19498
rclavicle 2.03754e-014 1.88845e-014
rhumerus 6.73794 -22.9121 10.3901
rradius 118.855
rwrist -58.2814
rhand -6.10781 -46.4487
rfingers 7.12502
rthumb 19.7287 -75.4676
lclavicle 2.03754e-014 1.88845e-014
lhumerus 27.4367 23.1588 -22.3318
lradius 32.4932
lwrist 32.4225
lhand -27.1221 -25.5249
lfingers 7.12502
lthumb -0.538031 4.45414
rfemur 0.148467 2.76948 -3.5675
rtibia 9.54166e-015
rfoot -32.1419 -22.7659
rtoes 53.0031
lfemur -21.2089 -2.26322 -24.9889
ltibia 17.166
lfoot -11.8869 14.3721
ltoes 10.3624
26
root 3.64087 17.6306 3.44679 18.5663 -17.9882 -1.38074
lowerback -9.63972 4.01101 3.7932
upperback -12.2492 5.08722 -0.195059
thorax -7.23834 2.19625 -2.13161
lowerneck -2.93911 16.6492 12.4895
upperneck 15.8306 20.9787 4.43574
head 6.16874 11.2003 1.00005
rclavicle 4.17448e-015 1.68967e-014
rhumerus 6.61311 -22.9406 10.4797
rradius 118.983
rwrist -58.6261
rhand -6.23725 -46.5366
rfingers 7.12502
rthumb 19.6043 -75.5682
lclavicle 4.17448e-015 1.68967e-014
lhumerus 27.4397 23.1875 -22.2541
lradius 32.5283
lwrist 32.4177
lhand -27.1815 -25.315
lfingers 7.12502
lthumb -0.595346 4.66396
rfemur 0.0595386 2.8281 -3.91978
rtibia -6.36111e-015
rfoot -32.8461 -21.8856
rtoes 53.2144
lfemur -21.165 -2.11428 -25.3567
ltibia 17.0137
lfoot -11.7342 14.3482
ltoes 9.91548
27
root 3.64432 17.6309 3.44923 18.6077 -18.1719 -1.3622
lowerback -9.67194 4.05511 3.72461
upperback -12.3298 5.14802 -0.186962
thorax -7.31341 2.22924 -2.08415
lowerneck -2.37343 16.5027 12.6214
upperneck 15.5685 20.8994 4.15388
head 6.03402 11.1447 0.830915
rclavicle -8.46326e-014 -3.18055e-014
rhumerus 6.74755 -22.8527 10.3862
rradius 118.976
rwrist -58.7119
rhand -6.50951 -46.5845
rfingers 7.12502
rthumb 19.3425 -75.6425
lclavicle -8.46326e-014 -3.18055e-014
lhumerus 27.4175 23.0921 -22.234
lradius 32.5572
lwrist 32.5543
lhand -26.6797 -25.063
lfingers 7.12502
lthumb -0.11069 4.91667
rfemur -0.0788969 2.9629 -4.00035
rtibia 2.22639e-014
rfoot -32.9921 -21.8006
rtoes 53.1928
lfemur -21.0964 -1.8637 -25.4769
ltibia 16.8248
lfoot -11.4542 14.2857
ltoes 9.09188
28
root 3.64389 17.6368 3.43233 18.6281 -18.2603 -1.38058
lowerback -9.43068 4.03692 3.58909
upperback -12.4351 5.14704 -0.135405
thorax -7.58183 2.23407 -1.97831
lowerneck -2.25929 16.4413 12.5354
upperneck 15.7372 20.8278 4.2227
head 6.05081 11.1166 0.8516
rclavicle -4.01048e-014 -2.78299e-015
rhumerus 6.87815 -22.7513 10.2582
rradius 118.955
rwrist -58.684
rhand -6.67086 -46.6048
rfingers 7.12502
rthumb 19.1874 -75.6783
lclavicle -4.01048e-014 -2.78299e-015
lhumerus 27.5396 23.3017 -21.9675
lradius 32.4144
lwrist 32.2376
lhand -26.8498 -25.1789
lfingers 7.12502
lthumb -0.275037 4.80062
rfemur -0.22555 3.04184 -3.95974
rtibia 3.18055e-015
rfoot -33.6512 -20.986
rtoes 53.5203
lfemur -21.115 -1.74435 -25.4389
ltibia 16.6283
lfoot -11.5181 14.1798
ltoes 9.62777
29
root 3.64185 17.6432 3.39554 18.6155 -18.2768 -1.34785
lowerback -8.91583 3.98003 3.32246
upperback -12.5461 5.11398 -0.0869633
thorax -8.02291 2.2304 -1.82532
lowerneck -2.28817 16.4038 12.5009
upperneck 15.9521 20.7714 4.23179
head 6.1185 11.0951 0.86809
rclavicle -3.37934e-015 -9.54166e-015
rhumerus 6.91801 -22.6692 10.1339
rradius 118.974
rwrist -58.6482
rhand -7.02635 -46.6715
rfingers 7.12502
rthumb 18.8455 -75.7786
lclavicle -3.37934e-015 -9.54166e-015
lhumerus 27.5886 23.4656 -21.7817
lradius 32.311
lwrist 31.8659
lhand -27.338 -25.1214
lfingers 7.12502
lthumb -0.746572 4.85708
rfemur -0.384095 3.05191 -3.93117
rtibia 1.59028e-014
rfoot -34.5606 -19.7694
rtoes 53.8764
lfemur -21.22 -1.70811 -25.385
ltibia 16.4427
lfoot -11.2917 14.0602
ltoes 9.99252
30
root 3.64283 17.6432 3.37354 18.5763 -18.2963 -1.22068
lowerback -8.54305 3.92213 3.03859
upperback -12.6086 5.06645 -0.0798884
thorax -8.32895 2.22367 -1.69371
lowerneck -2.47897 16.4233 12.4222
upperneck 16.1385 20.7514 4.37474
head 6.1855 11.0959 0.943545
rclavicle -3.67255e-014 9.54166e-015
rhumerus 6.95329 -22.5507 10.0306
rradius 118.985
rwrist -58.566
rhand -7.28756 -46.7496
rfingers 7.12502
rthumb 18.5942 -75.8809
lclavicle -3.67255e-014 9.54166e-015
lhumerus 27.265 23.1127 -22.1502
lradius 32.4929
lwrist 32.2183
lhand -27.5064 -24.9725
lfingers 7.12502
lthumb -0.909148 5.00529
rfemur -0.458719 3.03332 -4.04866
rtibia 2.54444e-014
rfoot -35.1095 -18.9481
rtoes 54.17
lfemur -21.2403 -1.6941 -25.4929
ltibia 16.2835
lfoot -11.0844 14.0115
ltoes 9.96673
31
root 3.64712 17.6408 3.37277 18.5176 -18.2701 -1.02879
lowerback -8.52235 3.86421 2.83871
upperback -12.5724 4.99346 -0.11368
thorax -8.31446 2.20363 -1.62119
lowerneck -3.13149 16.5234 12.1328
upperneck 16.6493 20.7336 4.8621
head 6.37359 11.1187 1.2013
rclavicle 5.32246e-014 1.55052e-014
rhumerus 7.05367 -22.547 9.86689
rradius 118.935
rwrist -58.3538
rhand -6.84867 -46.756
rfingers 7.12502
rthumb 19.0164 -75.8464
lclavicle 5.32246e-014 1.55052e-014
lhumerus 26.9399 22.8014 -22.4853
lradius 32.7345
lwrist 32.7934
lhand -27.8234 -24.9098
lfingers 7.12502
lthumb -1.2154 5.06645
rfemur -0.412313 2.95457 -4.24864
rtibia 6.36111e-015
rfoot -35.3739 -18.4565
rtoes 54.3708
lfemur -21.1878 -1.72093 -25.7108
ltibia 16.1874
lfoot -10.9259 13.9622
ltoes 9.59862
32
root 3.65187 17.6395 3.38055 18.498 -18.2022 -0.987893
lowerback -8.7042 3.84289 2.84723
upperback -12.4698 4.95508 -0.110954
thorax -8.09631 2.18991 -1.60622
lowerneck -3.61842 16.5877 11.8626
upperneck 17.0605 20.7195 5.17751
head 6.52329 11.1307 1.38828
rclavicle -1.66482e-014 -1.94809e-014
rhumerus 7.20133 -22.6363 9.68738
rradius 118.851
rwrist -58.2254
rhand -6.38521 -46.6285
rfingers 7.12502
rthumb 19.462 -75.6744
lclavicle -1.66482e-014 -1.94809e-014
lhumerus 26.8807 22.9117 -22.3567
lradius 32.8614
lwrist 33.1899
lhand -28.6956 -24.7776
lfingers 7.12502
lthumb -2.05771 5.19223
rfemur -0.338448 2.88639 -4.27951
rtibia -1.90833e-014
rfoot -35.0959 -18.8742
rtoes 54.1652
lfemur -21.1539 -1.74115 -25.77
ltibia 16.1815
lfoot -10.8914 13.8737
ltoes 9.49769
33
root 3.65722 17.6384 3.38738 18.4796 -18.1912 -1.05469
lowerback -8.7816 3.86047 2.97006
upperback -12.3838 4.96992 -0.108172
thorax -7.94558 2.19135 -1.66088
lowerneck -3.55445 16.5825 11.8187
upperneck 16.936 20.7462 5.06512
head 6.47966 11.1295 1.34934
rclavicle -1.88845e-014 -2.34566e-014
rhumerus 7.30097 -22.6926 9.54387
rradius 118.837
rwrist -58.4028
rhand -6.25134 -46.5415
rfingers 7.12502
rthumb 19.5907 -75.5745
lclavicle -1.88845e-014 -2.34566e-014
lhumerus 27.2189 23.6008 -21.686
lradius 32.7021
lwrist 32.795
lhand -28.7932 -24.8498
lfingers 7.12502
lthumb -2.152 5.11912
rfemur -0.293207 2.91098 -4.22013
rtibia 6.36111e-015
rfoot -34.4751 -19.9812
rtoes 53.7808
lfemur -21.1373 -1.77322 -25.7208
ltibia 16.2557
lfoot -10.9517 13.9167
ltoes 9.42726
34
root 3.66372 17.6358 3.39566 18.4663 -18.2335 -1.06504
lowerback -8.85439 3.86855 3.02404
upperback -12.2714 4.97207 -0.136871
thorax -7.77057 2.19163 -1.71031
lowerneck -3.59004 16.5996 11.9909
upperneck 16.7766 20.8044 4.723
head 6.49096 11.1366 1.23438
rclavicle 1.98785e-015 -1.23246e-014
rhumerus 7.42538 -22.8692 9.28972
rradius 118.785
rwrist -58.4941
rhand -6.22235 -46.5786
rfingers 7.12502
rthumb 19.6186 -75.6087
lclavicle 1.98785e-015 -1.23246e-014
lhumerus 27.5596 24.33 -21.0772
lradius 32.4525
lwrist 32.2515
lhand -27.3804 -25.3342
lfingers 7.12502
lthumb -0.787457 4.64407
rfemur -0.27098 2.95583 -4.24535
rtibia -3.18055e-015
rfoot -34.3824 -20.2145
rtoes 53.6336
lfemur -21.1592 -1.72048 -25.7676
ltibia 16.3826
lfoot -11.0565 13.9274
ltoes 9.4081
